<svg width="82" height="82" viewBox="0 0 82 82" fill="none" xmlns="http://www.w3.org/2000/svg">
<path d="M0 -0.453125H82V81.5469H0V-0.453125Z" fill="black"/>
<path d="M39.4428 29.2368V33.1406C39.3109 33.3359 39.101 33.5557 38.8129 33.7998C38.5248 34.0391 38.1269 34.249 37.619 34.4297C37.1161 34.6055 36.4667 34.6934 35.6708 34.6934C35.0214 34.6934 34.4232 34.5811 33.8764 34.3564C33.3344 34.127 32.8632 33.7949 32.4628 33.3604C32.0673 32.9209 31.7597 32.3887 31.5399 31.7637C31.3251 31.1338 31.2177 30.4209 31.2177 29.625V28.7974C31.2177 28.0015 31.3104 27.291 31.496 26.666C31.6864 26.041 31.9647 25.5112 32.331 25.0767C32.6972 24.6372 33.1464 24.3052 33.6786 24.0806C34.2108 23.8511 34.8212 23.7363 35.5097 23.7363C36.3251 23.7363 37.0063 23.8779 37.5531 24.1611C38.1049 24.4395 38.5346 24.8252 38.8422 25.3184C39.1547 25.8115 39.3549 26.373 39.4428 27.0029H38.0292C37.9657 26.6172 37.8388 26.2656 37.6483 25.9482C37.4628 25.6309 37.1967 25.377 36.85 25.1865C36.5033 24.9912 36.0565 24.8936 35.5097 24.8936C35.0165 24.8936 34.5893 24.9839 34.2279 25.1646C33.8666 25.3452 33.5688 25.604 33.3344 25.9409C33.1 26.2778 32.9242 26.6855 32.807 27.1641C32.6947 27.6426 32.6386 28.1821 32.6386 28.7827V29.625C32.6386 30.2402 32.7094 30.7896 32.851 31.2729C32.9975 31.7563 33.205 32.1689 33.4735 32.5107C33.7421 32.8477 34.0619 33.104 34.433 33.2798C34.809 33.4556 35.224 33.5435 35.6781 33.5435C36.1811 33.5435 36.5888 33.502 36.9013 33.4189C37.2138 33.3311 37.4579 33.2285 37.6337 33.1113C37.8095 32.9893 37.9438 32.8745 38.0365 32.7671V30.3794H35.5683V29.2368H39.4428ZM50.797 28.8779V29.5518C50.797 30.3525 50.6969 31.0703 50.4967 31.7051C50.2965 32.3398 50.0084 32.8794 49.6324 33.3237C49.2564 33.7681 48.8048 34.1074 48.2774 34.3418C47.755 34.5762 47.169 34.6934 46.5196 34.6934C45.8897 34.6934 45.3111 34.5762 44.7838 34.3418C44.2613 34.1074 43.8072 33.7681 43.4215 33.3237C43.0406 32.8794 42.7452 32.3398 42.5353 31.7051C42.3253 31.0703 42.2203 30.3525 42.2203 29.5518V28.8779C42.2203 28.0771 42.3229 27.3618 42.5279 26.7319C42.7379 26.0972 43.0333 25.5576 43.4142 25.1133C43.795 24.6641 44.2467 24.3223 44.7691 24.0879C45.2965 23.8535 45.8751 23.7363 46.505 23.7363C47.1544 23.7363 47.7403 23.8535 48.2628 24.0879C48.7901 24.3223 49.2418 24.6641 49.6178 25.1133C49.9986 25.5576 50.2892 26.0972 50.4894 26.7319C50.6944 27.3618 50.797 28.0771 50.797 28.8779ZM49.398 29.5518V28.8633C49.398 28.2285 49.3321 27.667 49.2003 27.1787C49.0733 26.6904 48.8854 26.2803 48.6363 25.9482C48.3873 25.6162 48.0821 25.3647 47.7208 25.1938C47.3644 25.0229 46.9591 24.9375 46.505 24.9375C46.0655 24.9375 45.6676 25.0229 45.3111 25.1938C44.9596 25.3647 44.6568 25.6162 44.4029 25.9482C44.1539 26.2803 43.961 26.6904 43.8243 27.1787C43.6876 27.667 43.6192 28.2285 43.6192 28.8633V29.5518C43.6192 30.1914 43.6876 30.7578 43.8243 31.251C43.961 31.7393 44.1563 32.1519 44.4103 32.4888C44.669 32.8208 44.9742 33.0723 45.3258 33.2432C45.6822 33.4141 46.0802 33.4995 46.5196 33.4995C46.9786 33.4995 47.3863 33.4141 47.7428 33.2432C48.0992 33.0723 48.3995 32.8208 48.6437 32.4888C48.8927 32.1519 49.0807 31.7393 49.2076 31.251C49.3346 30.7578 49.398 30.1914 49.398 29.5518Z" fill="white"/>
<path d="M38.1938 39.1719H39.6938V46.8672C39.6938 47.7214 39.5036 48.4323 39.1234 49C38.7432 49.5677 38.238 49.9948 37.6078 50.2812C36.9828 50.5625 36.3031 50.7031 35.5688 50.7031C34.7979 50.7031 34.1 50.5625 33.475 50.2812C32.8552 49.9948 32.363 49.5677 31.9984 49C31.6391 48.4323 31.4594 47.7214 31.4594 46.8672V39.1719H32.9516V46.8672C32.9516 47.4609 33.0609 47.9505 33.2797 48.3359C33.4984 48.7214 33.8031 49.0078 34.1938 49.1953C34.5896 49.3828 35.0479 49.4766 35.5688 49.4766C36.0948 49.4766 36.5531 49.3828 36.9438 49.1953C37.3396 49.0078 37.6469 48.7214 37.8656 48.3359C38.0844 47.9505 38.1938 47.4609 38.1938 46.8672V39.1719ZM47.0563 46.0859H44.0172V44.8594H47.0563C47.6448 44.8594 48.1214 44.7656 48.4859 44.5781C48.8505 44.3906 49.1161 44.1302 49.2828 43.7969C49.4547 43.4635 49.5406 43.0833 49.5406 42.6562C49.5406 42.2656 49.4547 41.8984 49.2828 41.5547C49.1161 41.2109 48.8505 40.9349 48.4859 40.7266C48.1214 40.513 47.6448 40.4062 47.0563 40.4062H44.3688V50.5469H42.8609V39.1719H47.0563C47.9156 39.1719 48.6422 39.3203 49.2359 39.6172C49.8297 39.9141 50.2802 40.3255 50.5875 40.8516C50.8948 41.3724 51.0484 41.9688 51.0484 42.6406C51.0484 43.3698 50.8948 43.9922 50.5875 44.5078C50.2802 45.0234 49.8297 45.4167 49.2359 45.6875C48.6422 45.9531 47.9156 46.0859 47.0563 46.0859Z" fill="white"/>
</svg>
